<svg width="24" height="24" viewBox="0 0 24 24" fill="none" xmlns="http://www.w3.org/2000/svg">
<g filter="url(#filter0_d_0_26)">
<path d="M9.334 8C9.334 7.47247 9.49044 6.9568 9.78354 6.51819C10.0766 6.07958 10.4932 5.73775 10.9806 5.53592C11.468 5.33409 12.0043 5.28133 12.5217 5.38432C13.039 5.48731 13.5143 5.74141 13.8872 6.1145C14.2602 6.48759 14.5141 6.96289 14.6169 7.48031C14.7197 7.99772 14.6667 8.534 14.4647 9.02131C14.2627 9.50862 13.9207 9.92508 13.482 10.218C13.0433 10.5109 12.5275 10.6672 12 10.667C11.2928 10.6667 10.6147 10.3856 10.1148 9.8855C9.61485 9.38537 9.334 8.70716 9.334 8ZM7.892 8C7.892 8.81249 8.13293 9.60673 8.58432 10.2823C9.03572 10.9578 9.6773 11.4844 10.4279 11.7953C11.1786 12.1062 12.0046 12.1876 12.8014 12.0291C13.5983 11.8706 14.3303 11.4793 14.9048 10.9048C15.4793 10.3303 15.8706 9.5983 16.0291 8.80143C16.1876 8.00456 16.1062 7.17858 15.7953 6.42794C15.4844 5.6773 14.9578 5.03572 14.2823 4.58432C13.6067 4.13293 12.8125 3.892 12 3.892C10.9105 3.892 9.8656 4.32481 9.09521 5.09521C8.32481 5.8656 7.892 6.91049 7.892 8ZM15.31 3.729C15.31 3.91887 15.3663 4.10448 15.4718 4.26235C15.5773 4.42022 15.7272 4.54326 15.9026 4.61592C16.078 4.68858 16.2711 4.7076 16.4573 4.67055C16.6435 4.63351 16.8146 4.54208 16.9488 4.40782C17.0831 4.27356 17.1745 4.10251 17.2116 3.91629C17.2486 3.73006 17.2296 3.53704 17.1569 3.36162C17.0843 3.18621 16.9612 3.03628 16.8033 2.93079C16.6455 2.8253 16.4599 2.769 16.27 2.769C16.0154 2.769 15.7712 2.87014 15.5912 3.05018C15.4111 3.23021 15.31 3.47439 15.31 3.729ZM8.768 14.512C8.26056 14.5063 7.75788 14.4133 7.282 14.237C6.93443 14.1081 6.6201 13.9031 6.362 13.637C6.09543 13.3793 5.89035 13.0648 5.762 12.717C5.58565 12.2411 5.49262 11.7385 5.487 11.231C5.448 10.388 5.44 10.131 5.44 7.998C5.44 5.865 5.448 5.609 5.487 4.765C5.49329 4.25761 5.5863 3.75504 5.762 3.279C5.89091 2.93143 6.09591 2.6171 6.362 2.359C6.61966 2.09238 6.93413 1.88729 7.282 1.759C7.75786 1.58265 8.26055 1.48962 8.768 1.484C9.611 1.445 9.868 1.437 12 1.437C14.132 1.437 14.389 1.445 15.233 1.484C15.7404 1.49029 16.243 1.5833 16.719 1.759C17.0667 1.88766 17.3811 2.0927 17.639 2.359C17.9053 2.61692 18.1103 2.93131 18.239 3.279C18.4154 3.75486 18.5084 4.25755 18.514 4.765C18.553 5.609 18.561 5.865 18.561 7.998C18.561 10.131 18.553 10.387 18.514 11.231C18.508 11.7384 18.4149 12.241 18.239 12.717C18.1058 13.062 17.9018 13.3754 17.6402 13.6368C17.3786 13.8983 17.0651 14.102 16.72 14.235C16.2441 14.4114 15.7415 14.5044 15.234 14.51C14.391 14.549 14.134 14.557 12.001 14.557C9.868 14.557 9.612 14.549 8.769 14.51L8.768 14.512ZM8.7 0.048C8.03695 0.0614449 7.38099 0.187228 6.76 0.42C6.2262 0.621021 5.74263 0.936001 5.343 1.343C4.93563 1.74233 4.62059 2.22598 4.42 2.76C4.18727 3.381 4.06148 4.03696 4.048 4.7C4.009 5.555 4 5.827 4 8C4 10.173 4.009 10.445 4.048 11.3C4.06146 11.963 4.18725 12.619 4.42 13.24C4.62065 13.774 4.93568 14.2576 5.343 14.657C5.74282 15.0638 6.22633 15.3787 6.76 15.58C7.38165 15.8129 8.03829 15.9387 8.702 15.952C9.555 15.99 9.827 16 12 16C14.173 16 14.445 15.991 15.3 15.952C15.9637 15.9388 16.6204 15.813 17.242 15.58C17.7735 15.3745 18.2563 15.0602 18.6592 14.6572C19.0622 14.2543 19.3765 13.7715 19.582 13.24C19.8153 12.6185 19.9411 11.9618 19.954 11.298C19.99 10.445 20 10.173 20 8C20 5.827 19.991 5.555 19.952 4.7C19.9386 4.03695 19.8128 3.38099 19.58 2.76C19.3787 2.22634 19.0637 1.74284 18.657 1.343C18.2578 0.935898 17.7746 0.62089 17.241 0.42C16.6197 0.186967 15.9634 0.0611776 15.3 0.048C14.446 0.01 14.173 0 12 0C9.827 0 9.555 0.009 8.7 0.048Z" fill="url(#paint0_radial_0_26)"/>
<path d="M9.334 8C9.334 7.47247 9.49044 6.9568 9.78354 6.51819C10.0766 6.07958 10.4932 5.73775 10.9806 5.53592C11.468 5.33409 12.0043 5.28133 12.5217 5.38432C13.039 5.48731 13.5143 5.74141 13.8872 6.1145C14.2602 6.48759 14.5141 6.96289 14.6169 7.48031C14.7197 7.99772 14.6667 8.534 14.4647 9.02131C14.2627 9.50862 13.9207 9.92508 13.482 10.218C13.0433 10.5109 12.5275 10.6672 12 10.667C11.2928 10.6667 10.6147 10.3856 10.1148 9.8855C9.61485 9.38537 9.334 8.70716 9.334 8ZM7.892 8C7.892 8.81249 8.13293 9.60673 8.58432 10.2823C9.03572 10.9578 9.6773 11.4844 10.4279 11.7953C11.1786 12.1062 12.0046 12.1876 12.8014 12.0291C13.5983 11.8706 14.3303 11.4793 14.9048 10.9048C15.4793 10.3303 15.8706 9.5983 16.0291 8.80143C16.1876 8.00456 16.1062 7.17858 15.7953 6.42794C15.4844 5.6773 14.9578 5.03572 14.2823 4.58432C13.6067 4.13293 12.8125 3.892 12 3.892C10.9105 3.892 9.8656 4.32481 9.09521 5.09521C8.32481 5.8656 7.892 6.91049 7.892 8ZM15.31 3.729C15.31 3.91887 15.3663 4.10448 15.4718 4.26235C15.5773 4.42022 15.7272 4.54326 15.9026 4.61592C16.078 4.68858 16.2711 4.7076 16.4573 4.67055C16.6435 4.63351 16.8146 4.54208 16.9488 4.40782C17.0831 4.27356 17.1745 4.10251 17.2116 3.91629C17.2486 3.73006 17.2296 3.53704 17.1569 3.36162C17.0843 3.18621 16.9612 3.03628 16.8033 2.93079C16.6455 2.8253 16.4599 2.769 16.27 2.769C16.0154 2.769 15.7712 2.87014 15.5912 3.05018C15.4111 3.23021 15.31 3.47439 15.31 3.729ZM8.768 14.512C8.26056 14.5063 7.75788 14.4133 7.282 14.237C6.93443 14.1081 6.6201 13.9031 6.362 13.637C6.09543 13.3793 5.89035 13.0648 5.762 12.717C5.58565 12.2411 5.49262 11.7385 5.487 11.231C5.448 10.388 5.44 10.131 5.44 7.998C5.44 5.865 5.448 5.609 5.487 4.765C5.49329 4.25761 5.5863 3.75504 5.762 3.279C5.89091 2.93143 6.09591 2.6171 6.362 2.359C6.61966 2.09238 6.93413 1.88729 7.282 1.759C7.75786 1.58265 8.26055 1.48962 8.768 1.484C9.611 1.445 9.868 1.437 12 1.437C14.132 1.437 14.389 1.445 15.233 1.484C15.7404 1.49029 16.243 1.5833 16.719 1.759C17.0667 1.88766 17.3811 2.0927 17.639 2.359C17.9053 2.61692 18.1103 2.93131 18.239 3.279C18.4154 3.75486 18.5084 4.25755 18.514 4.765C18.553 5.609 18.561 5.865 18.561 7.998C18.561 10.131 18.553 10.387 18.514 11.231C18.508 11.7384 18.4149 12.241 18.239 12.717C18.1058 13.062 17.9018 13.3754 17.6402 13.6368C17.3786 13.8983 17.0651 14.102 16.72 14.235C16.2441 14.4114 15.7415 14.5044 15.234 14.51C14.391 14.549 14.134 14.557 12.001 14.557C9.868 14.557 9.612 14.549 8.769 14.51L8.768 14.512ZM8.7 0.048C8.03695 0.0614449 7.38099 0.187228 6.76 0.42C6.2262 0.621021 5.74263 0.936001 5.343 1.343C4.93563 1.74233 4.62059 2.22598 4.42 2.76C4.18727 3.381 4.06148 4.03696 4.048 4.7C4.009 5.555 4 5.827 4 8C4 10.173 4.009 10.445 4.048 11.3C4.06146 11.963 4.18725 12.619 4.42 13.24C4.62065 13.774 4.93568 14.2576 5.343 14.657C5.74282 15.0638 6.22633 15.3787 6.76 15.58C7.38165 15.8129 8.03829 15.9387 8.702 15.952C9.555 15.99 9.827 16 12 16C14.173 16 14.445 15.991 15.3 15.952C15.9637 15.9388 16.6204 15.813 17.242 15.58C17.7735 15.3745 18.2563 15.0602 18.6592 14.6572C19.0622 14.2543 19.3765 13.7715 19.582 13.24C19.8153 12.6185 19.9411 11.9618 19.954 11.298C19.99 10.445 20 10.173 20 8C20 5.827 19.991 5.555 19.952 4.7C19.9386 4.03695 19.8128 3.38099 19.58 2.76C19.3787 2.22634 19.0637 1.74284 18.657 1.343C18.2578 0.935898 17.7746 0.62089 17.241 0.42C16.6197 0.186967 15.9634 0.0611776 15.3 0.048C14.446 0.01 14.173 0 12 0C9.827 0 9.555 0.009 8.7 0.048Z" fill="url(#paint1_radial_0_26)"/>
</g>
<defs>
<filter id="filter0_d_0_26" x="0" y="0" width="24" height="24" filterUnits="userSpaceOnUse" color-interpolation-filters="sRGB">
<feFlood flood-opacity="0" result="BackgroundImageFix"/>
<feColorMatrix in="SourceAlpha" type="matrix" values="0 0 0 0 0 0 0 0 0 0 0 0 0 0 0 0 0 0 127 0" result="hardAlpha"/>
<feOffset dy="4"/>
<feGaussianBlur stdDeviation="2"/>
<feComposite in2="hardAlpha" operator="out"/>
<feColorMatrix type="matrix" values="0 0 0 0 0 0 0 0 0 0 0 0 0 0 0 0 0 0 0.25 0"/>
<feBlend mode="normal" in2="BackgroundImageFix" result="effect1_dropShadow_0_26"/>
<feBlend mode="normal" in="SourceGraphic" in2="effect1_dropShadow_0_26" result="shape"/>
</filter>
<radialGradient id="paint0_radial_0_26" cx="0" cy="0" r="1" gradientUnits="userSpaceOnUse" gradientTransform="translate(6.128 16.08) scale(20.88)">
<stop offset="0.09" stop-color="#FA8F21"/>
<stop offset="0.78" stop-color="#D82D7E"/>
</radialGradient>
<radialGradient id="paint1_radial_0_26" cx="0" cy="0" r="1" gradientUnits="userSpaceOnUse" gradientTransform="translate(13.696 16.8) scale(16.464)">
<stop offset="0.64" stop-color="#8C3AAA" stop-opacity="0"/>
<stop offset="1" stop-color="#8C3AAA"/>
</radialGradient>
</defs>
</svg>
